HIERARCHY
ROOT hip
{
  OFFSET 11.0787 80.6991 -217.774
  CHANNELS 6 Xposition Yposition Zposition Zrotation Xrotation Yrotation
  JOINT abdomen
  {
    OFFSET 0 20.6881 -0.73152
    CHANNELS 3 Zrotation Xrotation Yrotation
    JOINT chest
    {
      OFFSET 0 11.7043 -0.48768
      CHANNELS 3 Zrotation Xrotation Yrotation
      JOINT neck
      {
        OFFSET 0 22.1894 -2.19456
        CHANNELS 3 Zrotation Xrotation Yrotation
        JOINT head
        {
          OFFSET -0.24384 7.07133 1.2192
          CHANNELS 3 Zrotation Xrotation Yrotation
          JOINT leftEye
          {
            OFFSET 4.14528 8.04674 8.04672
            CHANNELS 3 Zrotation Xrotation Yrotation
            End Site
            {
              OFFSET 1 0 0
            }
          }
          JOINT rightEye
          {
            OFFSET -3.6576 8.04674 8.04672
            CHANNELS 3 Zrotation Xrotation Yrotation
            End Site
            {
              OFFSET 1 0 0
            }
          }
        }
      }
      JOINT rCollar
      {
        OFFSET -2.68224 19.2634 -4.8768
        CHANNELS 3 Zrotation Xrotation Yrotation
        JOINT rShldr
        {
          OFFSET -8.77824 -1.95073 1.46304
          CHANNELS 3 Zrotation Xrotation Yrotation
          JOINT rForeArm
          {
            OFFSET -28.1742 -1.7115 0.48768
            CHANNELS 3 Zrotation Xrotation Yrotation
            JOINT rHand
            {
              OFFSET -22.5879 0.773209 7.07136
              CHANNELS 3 Zrotation Xrotation Yrotation
              JOINT rThumb1
              {
                OFFSET -1.2192 -0.487915 3.41376
                CHANNELS 3 Zrotation Xrotation Yrotation
                JOINT rThumb2
                {
                  OFFSET -3.37035 -0.52449 3.41376
                  CHANNELS 3 Zrotation Xrotation Yrotation
                  End Site
                  {
                    OFFSET -1.78271 -1.18214 1.43049
                  }
                }
              }
              JOINT rIndex1
              {
                OFFSET -7.75947 0.938293 5.60832
                CHANNELS 3 Zrotation Xrotation Yrotation
                JOINT rIndex2
                {
                  OFFSET -2.54057 -0.884171 1.56538
                  CHANNELS 3 Zrotation Xrotation Yrotation
                  End Site
                  {
                    OFFSET -1.62519 -0.234802 1.16502
                  }
                }
              }
              JOINT rMid1
              {
                OFFSET -8.24714 1.18213 3.41376
                CHANNELS 3 Zrotation Xrotation Yrotation
                JOINT rMid2
                {
                  OFFSET -3.10165 -0.590103 1.0647
                  CHANNELS 3 Zrotation Xrotation Yrotation
                  End Site
                  {
                    OFFSET -2.48547 -0.328903 0.83742
                  }
                }
              }
              JOINT rRing1
              {
                OFFSET -8.82822 0.546677 1.51678
                CHANNELS 3 Zrotation Xrotation Yrotation
                JOINT rRing2
                {
                  OFFSET -2.60934 -0.819778 -0.0198488
                  CHANNELS 3 Zrotation Xrotation Yrotation
                  End Site
                  {
                    OFFSET -2.33842 -0.294052 0.168128
                  }
                }
              }
              JOINT rPinky1
              {
                OFFSET -8.27202 -0.0477905 -0.4584
                CHANNELS 3 Zrotation Xrotation Yrotation
                JOINT rPinky2
                {
                  OFFSET -1.82734 -0.647385 -0.700984
                  CHANNELS 3 Zrotation Xrotation Yrotation
                  End Site
                  {
                    OFFSET -1.69225 -0.51767 -0.607171
                  }
                }
              }
            }
          }
        }
      }
      JOINT lCollar
      {
        OFFSET 2.68224 19.2634 -4.8768
        CHANNELS 3 Zrotation Xrotation Yrotation
        JOINT lShldr
        {
          OFFSET 8.77824 -1.95073 1.46304
          CHANNELS 3 Zrotation Xrotation Yrotation
          JOINT lForeArm
          {
            OFFSET 28.1742 -1.7115 0.48768
            CHANNELS 3 Zrotation Xrotation Yrotation
            JOINT lHand
            {
              OFFSET 22.5879 0.773209 7.07136
              CHANNELS 3 Zrotation Xrotation Yrotation
              JOINT lThumb1
              {
                OFFSET 1.2192 -0.487915 3.41376
                CHANNELS 3 Zrotation Xrotation Yrotation
                JOINT lThumb2
                {
                  OFFSET 3.37035 -0.52449 3.41376
                  CHANNELS 3 Zrotation Xrotation Yrotation
                  End Site
                  {
                    OFFSET 1.78271 -1.18214 1.43049
                  }
                }
              }
              JOINT lIndex1
              {
                OFFSET 7.75947 0.938293 5.60832
                CHANNELS 3 Zrotation Xrotation Yrotation
                JOINT lIndex2
                {
                  OFFSET 2.54057 -0.884171 1.56538
                  CHANNELS 3 Zrotation Xrotation Yrotation
                  End Site
                  {
                    OFFSET 1.62519 -0.234802 1.16502
                  }
                }
              }
              JOINT lMid1
              {
                OFFSET 8.24714 1.18213 3.41376
                CHANNELS 3 Zrotation Xrotation Yrotation
                JOINT lMid2
                {
                  OFFSET 3.10165 -0.590103 1.0647
                  CHANNELS 3 Zrotation Xrotation Yrotation
                  End Site
                  {
                    OFFSET 2.48547 -0.328903 0.83742
                  }
                }
              }
              JOINT lRing1
              {
                OFFSET 8.82822 0.546677 1.51678
                CHANNELS 3 Zrotation Xrotation Yrotation
                JOINT lRing2
                {
                  OFFSET 2.60934 -0.819778 -0.0198488
                  CHANNELS 3 Zrotation Xrotation Yrotation
                  End Site
                  {
                    OFFSET 2.33842 -0.294052 0.168128
                  }
                }
              }
              JOINT lPinky1
              {
                OFFSET 8.27202 -0.0477905 -0.4584
                CHANNELS 3 Zrotation Xrotation Yrotation
                JOINT lPinky2
                {
                  OFFSET 1.82734 -0.647385 -0.700984
                  CHANNELS 3 Zrotation Xrotation Yrotation
                  End Site
                  {
                    OFFSET 1.69225 -0.51767 -0.607171
                  }
                }
              }
            }
          }
        }
      }
    }
  }
  JOINT rButtock
  {
    OFFSET -8.77824 4.35084 1.2192
    CHANNELS 3 Zrotation Xrotation Yrotation
    JOINT rThigh
    {
      OFFSET 0 -1.70687 -2.19456
      CHANNELS 3 Zrotation Xrotation Yrotation
      JOINT rShin
      {
        OFFSET 0 -36.8199 0.73152
        CHANNELS 3 Zrotation Xrotation Yrotation
        JOINT rFoot
        {
          OFFSET 0.73152 -45.1104 -5.12064
          CHANNELS 3 Zrotation Xrotation Yrotation
          End Site
          {
            OFFSET -1.1221 -3.69964 12.103
          }
        }
      }
    }
  }
  JOINT lButtock
  {
    OFFSET 8.77824 4.35084 1.2192
    CHANNELS 3 Zrotation Xrotation Yrotation
    JOINT lThigh
    {
      OFFSET 0 -1.70687 -2.19456
      CHANNELS 3 Zrotation Xrotation Yrotation
      JOINT lShin
      {
        OFFSET 0 -36.8199 0.73152
        CHANNELS 3 Zrotation Xrotation Yrotation
        JOINT lFoot
        {
          OFFSET -0.73152 -45.1104 -5.12064
          CHANNELS 3 Zrotation Xrotation Yrotation
          End Site
          {
            OFFSET 1.1221 -3.69964 12.103
          }
        }
      }
    }
  }
}
MOTION
Frames:	8
Frame Time:	0.00833333
6.55331 85.3572 198.169 -0.999979 0.00113123 0.0184784 1.31605 -0.00470384 0.0362378 0.363463 -0.0035946 0.0629626 1.571e-014 0 -2.23633e-016 4.70064e-014 3.18055e-015 -6.74004e-016 -0 0 0 -0 0 0 7.85074e-015 -3.28072e-017 9.93923e-017 1.66214e-013 -5.34234e-016 -5.96354e-016 2.82672e-012 -8.65707e-013 -7.31528e-014 3.23553e-011 7.29739e-013 -3.84847e-013 7.6319e-011 -3.00778e-013 -9.7643e-013 1.3179e-010 -5.21611e-013 -1.69683e-012 7.63222e-011 -3.00562e-013 -9.92333e-013 7.73091 5.47488 0.417314 7.63189e-011 -3.01159e-013 -9.7643e-013 2.90554 0.965183 0.102902 7.63225e-011 -3.00662e-013 -9.78816e-013 10.2786 0.731801 0.0259123 7.63146e-011 -2.98575e-013 -9.70069e-013 2.22167 -0.733487 -0.20892 7.65498e-015 -3.28072e-017 -2.98177e-016 1.63469e-013 -5.34234e-016 -2.18663e-015 2.82871e-012 8.22372e-013 -6.36111e-014 3.23629e-011 -9.67883e-013 -3.68944e-013 7.63418e-011 -3.21427e-013 -9.63708e-013 1.31848e-010 -5.50236e-013 -1.6682e-012 7.63397e-011 -3.19646e-013 -9.60528e-013 -7.73091 5.47488 -0.417314 7.63429e-011 -3.21832e-013 -9.66889e-013 -2.90554 0.965183 -0.102902 7.63385e-011 -3.21932e-013 -9.68479e-013 -10.2786 0.731801 -0.0259123 7.63486e-011 -3.20043e-013 -9.82791e-013 -2.22167 -0.733487 0.20892 -2.03217e-016 0 -3.88251e-019 1.46221 -6.13863 -0.13474 0.00180661 5.56149 0.0541931 -0.477911 0.57502 0.0659395 2.03217e-016 0 3.88251e-019 0.544698 -1.92085 0.00800528 0.00891035 -2.07861 0.0733838 0.452861 3.99724 -0.131543 
7.64243 82.8948 186.259 -0.977122 0.117944 49.179 0.483017 1.29115 -2.09235 0.868199 0.76004 -0.482328 0.916516 -3.56142 0.320453 -1.28472 6.9683 1.37368 -0 0 0 -0 0 0 8.06201e-015 -8.01105e-015 -1.69417e-014 20.5688 8.22509 -11.3166 -13.8189 -10.92 14.1822 0.00755413 1.95653 0.274427 1.3624e-010 -1.61237e-010 -5.54116e-011 2.35604e-010 -2.78695e-010 -9.65695e-011 1.36244e-010 -1.61238e-010 -5.54287e-011 7.73091 5.47488 0.417314 1.36241e-010 -1.6124e-010 -5.54106e-011 2.90554 0.965183 0.102902 1.36244e-010 -1.61239e-010 -5.54143e-011 10.2786 0.731801 0.0259123 1.36235e-010 -1.61237e-010 -5.54053e-011 2.22167 -0.733487 -0.20892 7.95312e-015 -8.01359e-015 -1.73292e-014 -20.3227 15.2189 2.61171 19.7489 -17.4802 -15.1803 -0.0828891 6.39393 -0.878529 -3.14649e-010 1.03692e-009 2.20103e-010 -5.39644e-010 1.80458e-009 3.87016e-010 -3.14651e-010 1.03692e-009 2.20105e-010 -7.73091 5.47488 -0.417314 -3.14645e-010 1.03692e-009 2.20098e-010 -2.90554 0.965183 -0.102902 -3.14653e-010 1.03692e-009 2.20099e-010 -10.2786 0.731801 -0.0259123 -3.14643e-010 1.03692e-009 2.20088e-010 -2.22167 -0.733487 0.20892 -2.03217e-016 0 -3.88251e-019 2.01104 -14.3699 0.461714 -0.170503 14.9659 -0.0388357 -0.463106 2.92187 -2.97249 2.03217e-016 0 3.88251e-019 0.419628 -5.06269 0.752728 0.174279 16.7264 -0.11223 0.27562 11.2401 3.22367 
7.95709 82.3337 184.817 -1.02819 -0.0768991 101.145 -0.329064 2.60909 -4.38098 1.42266 1.56164 -1.07131 1.9344 -7.3214 0.669887 -3.02371 14.3539 2.91568 -0 0 0 -0 0 0 8.40681e-015 -1.68086e-014 -3.58185e-014 45.8668 15.815 -24.1432 -22.5201 -20.2418 30.7381 -0.00495239 3.98632 0.560231 1.99367e-010 -3.36436e-010 -1.13122e-010 3.44994e-010 -5.81546e-010 -1.97153e-010 1.99371e-010 -3.36439e-010 -1.1314e-010 7.73091 5.47488 0.417314 1.99368e-010 -3.36442e-010 -1.13119e-010 2.90554 0.965183 0.102902 1.99371e-010 -3.3644e-010 -1.13125e-010 10.2786 0.731801 0.0259123 1.99362e-010 -3.36437e-010 -1.13115e-010 2.22167 -0.733487 -0.20892 8.39108e-015 -1.68139e-014 -3.61974e-014 -43.531 31.2628 6.06694 29.655 -31.7622 -35.7097 0.0478462 13.1422 -1.84355 -7.37987e-010 2.16589e-009 4.60085e-010 -1.26668e-009 3.76913e-009 8.08937e-010 -7.37989e-010 2.16588e-009 4.60086e-010 -7.73091 5.47488 -0.417314 -7.37981e-010 2.16589e-009 4.60078e-010 -2.90554 0.965183 -0.102902 -7.37993e-010 2.16589e-009 4.60083e-010 -10.2786 0.731801 -0.0259123 -7.37983e-010 2.1659e-009 4.60075e-010 -2.22167 -0.733487 0.20892 -2.03217e-016 0 -3.88251e-019 2.74622 -23.1069 1.15996 -0.316322 24.8382 -0.151328 -0.166354 5.46607 -6.16677 2.03217e-016 0 3.88251e-019 0.322849 -8.28381 1.5361 0.504307 36.4592 -0.366896 -0.884119 18.8528 6.98332 
8.23888 81.7213 183.445 -0.811415 -0.454596 147.499 -0.894303 3.86159 -6.36242 1.9213 2.28653 -1.57403 2.87085 -10.6829 0.976428 -4.91532 20.8551 4.37793 -0 0 0 -0 0 0 8.48456e-015 -2.39675e-014 -5.1024e-014 71.3544 20.7383 -36.2754 -25.6778 -24.4924 47.0437 -0.0338146 5.86906 0.827138 2.56083e-010 -4.8311e-010 -1.64282e-010 4.43231e-010 -8.35042e-010 -2.86315e-010 2.56087e-010 -4.83114e-010 -1.64301e-010 7.73091 5.47488 0.417314 2.56085e-010 -4.83118e-010 -1.64279e-010 2.90554 0.965183 0.102902 2.56087e-010 -4.83115e-010 -1.64285e-010 10.2786 0.731801 0.0259123 2.56077e-010 -4.83113e-010 -1.64276e-010 2.22167 -0.733487 -0.20892 8.54941e-015 -2.39752e-014 -5.13913e-014 -66.589 45.1937 10.7601 29.6018 -36.1216 -58.2615 0.368688 19.1632 -2.77296 -1.09663e-009 3.11141e-009 6.62237e-010 -1.88263e-009 5.41484e-009 1.16438e-009 -1.09663e-009 3.11139e-009 6.62237e-010 -7.73091 5.47488 -0.417314 -1.09662e-009 3.1114e-009 6.62228e-010 -2.90554 0.965183 -0.102902 -1.09664e-009 3.11141e-009 6.62235e-010 -10.2786 0.731801 -0.0259123 -1.09663e-009 3.11141e-009 6.6223e-010 -2.22167 -0.733487 0.20892 -2.03217e-016 0 -3.88251e-019 3.69676 -30.8202 1.87454 -0.408289 33.7746 -0.265187 0.315309 7.53212 -9.11706 2.03217e-016 0 3.88251e-019 0.418821 -11.3389 2.27786 1.06713 54.334 -0.804593 -2.84808 25.3792 10.8009 
8.63434 81.208 182.035 -0.623956 -0.48953 179.827 -1.03826 4.97079 -7.56523 2.24847 2.82046 -1.86003 3.51373 -13.0496 1.16078 -6.38369 25.1961 5.38243 -0 0 0 -0 0 0 7.8947e-015 -2.70297e-014 -5.70512e-014 90.3949 22.9806 -44.4338 -26.352 -24.3735 58.2779 -0.0673533 7.38462 1.04368 2.96773e-010 -5.5847e-010 -1.99068e-010 5.13585e-010 -9.65149e-010 -3.46924e-010 2.96778e-010 -5.58475e-010 -1.99087e-010 7.73091 5.47488 0.417314 2.96775e-010 -5.5848e-010 -1.99065e-010 2.90554 0.965183 0.102902 2.96777e-010 -5.58477e-010 -1.99071e-010 10.2786 0.731801 0.0259123 2.96767e-010 -5.58475e-010 -1.99061e-010 2.22167 -0.733487 -0.20892 8.00865e-015 -2.70386e-014 -5.73991e-014 -84.9775 54.2529 15.9191 28.328 -33.2032 -72.4002 0.721173 23.3833 -3.48394 -1.29353e-009 3.59829e-009 7.69812e-010 -2.22087e-009 6.26349e-009 1.35365e-009 -1.29353e-009 3.59827e-009 7.69812e-010 -7.73091 5.47488 -0.417314 -1.29352e-009 3.59828e-009 7.69802e-010 -2.90554 0.965183 -0.102902 -1.29354e-009 3.59829e-009 7.69812e-010 -10.2786 0.731801 -0.0259123 -1.29353e-009 3.59829e-009 7.69809e-010 -2.22167 -0.733487 0.20892 -2.03217e-016 0 -3.88251e-019 4.73235 -35.9861 2.42336 -0.450163 40.3716 -0.343582 0.696986 8.48378 -11.3858 2.03217e-016 0 3.88251e-019 0.841393 -13.9847 2.88994 1.97343 67.5647 -1.59645 -4.79745 29.4998 13.9682 
8.90551 80.8253 180.739 -1.03347 -0.131032 -167.462 -0.642573 5.94944 -7.65754 2.32336 3.09809 -1.83566 3.70544 -14.0345 1.16713 -6.87131 26.5111 5.54734 -0 0 0 -0 0 0 6.74706e-015 -2.78972e-014 -4.86669e-014 97.9131 24.1504 -46.2084 -26.4596 -23.4496 62.0211 -0.0920828 8.40745 1.19063 3.54305e-010 -5.47142e-010 -2.47084e-010 6.12497e-010 -9.44742e-010 -4.30346e-010 3.5431e-010 -5.47145e-010 -2.47101e-010 7.73091 5.47488 0.417314 3.54307e-010 -5.4715e-010 -2.47083e-010 2.90554 0.965183 0.102902 3.54309e-010 -5.47148e-010 -2.47087e-010 10.2786 0.731801 0.0259123 3.54298e-010 -5.47146e-010 -2.47078e-010 2.22167 -0.733487 -0.20892 6.86708e-015 -2.79059e-014 -4.89787e-014 -92.8282 56.9888 18.3321 28.211 -30.623 -76.1155 0.898101 25.1271 -3.79566 -1.32415e-009 3.48068e-009 7.74623e-010 -2.27376e-009 6.06482e-009 1.36253e-009 -1.32415e-009 3.48066e-009 7.74623e-010 -7.73091 5.47488 -0.417314 -1.32414e-009 3.48067e-009 7.74615e-010 -2.90554 0.965183 -0.102902 -1.32415e-009 3.48068e-009 7.74624e-010 -10.2786 0.731801 -0.0259123 -1.32414e-009 3.48068e-009 7.74622e-010 -2.22167 -0.733487 0.20892 -2.03217e-016 0 -3.88251e-019 5.68643 -37.5623 2.59527 -0.47603 43.7193 -0.340028 0.677053 7.90706 -12.6488 2.03217e-016 0 3.88251e-019 1.72351 -16.0127 3.34945 3.04467 74.3899 -2.61727 -5.66219 30.4745 15.657 
9.17365 80.3502 179.452 -1.82875 0.429269 -168.766 0.0954171 6.83785 -6.95349 2.21461 3.19224 -1.58965 3.56689 -14.0319 1.04345 -6.58312 25.6734 5.06824 -0 0 0 -0 0 0 5.18307e-015 -2.70287e-014 -3.00631e-014 96.7398 25.1382 -43.2847 -26.2869 -23.1438 60.7785 -0.106434 9.07745 1.28703 4.21998e-010 -4.73266e-010 -3.0283e-010 7.28589e-010 -8.15766e-010 -5.27073e-010 4.22001e-010 -4.73267e-010 -3.02842e-010 7.73091 5.47488 0.417314 4.21997e-010 -4.73272e-010 -3.02831e-010 2.90554 0.965183 0.102902 4.22001e-010 -4.73271e-010 -3.02831e-010 10.2786 0.731801 0.0259123 4.21989e-010 -4.7327e-010 -3.02823e-010 2.22167 -0.733487 -0.20892 5.27836e-015 -2.70361e-014 -3.03271e-014 -91.6651 55.4207 17.4307 28.1196 -30.119 -74.1322 0.890579 25.1047 -3.79013 -1.23312e-009 2.92949e-009 7.04618e-010 -2.11788e-009 5.1148e-009 1.24008e-009 -1.23312e-009 2.92948e-009 7.04621e-010 -7.73091 5.47488 -0.417314 -1.23311e-009 2.92949e-009 7.04614e-010 -2.90554 0.965183 -0.102902 -1.23313e-009 2.92949e-009 7.04622e-010 -10.2786 0.731801 -0.0259123 -1.23312e-009 2.92949e-009 7.0462e-010 -2.22167 -0.733487 0.20892 -2.03217e-016 0 -3.88251e-019 6.52032 -36.5783 2.45436 -0.505916 44.7448 -0.265719 0.306262 6.25911 -13.1918 2.03217e-016 0 3.88251e-019 2.91649 -17.6025 3.6944 3.73706 76.6387 -3.31852 -5.46181 29.2864 16.1225 
9.3996 79.9009 178.218 -2.54042 1.03101 -175.707 0.876355 7.60275 -5.94869 2.02924 3.19616 -1.26484 3.29731 -13.6185 0.862425 -5.99995 24.032 4.35751 -0 0 0 -0 0 0 2.84951e-015 -1.98002e-014 -9.87051e-015 92.0537 25.8478 -38.4256 -25.9412 -22.9298 57.5213 -0.11523 9.57263 1.35826 4.30908e-010 -3.53333e-010 -3.03818e-010 7.43401e-010 -6.07794e-010 -5.28662e-010 4.30911e-010 -3.53333e-010 -3.03827e-010 7.73091 5.47488 0.417314 4.30906e-010 -3.53337e-010 -3.03823e-010 2.90554 0.965183 0.102902 4.3091e-010 -3.53337e-010 -3.03819e-010 10.2786 0.731801 0.0259123 4.30899e-010 -3.53337e-010 -3.03812e-010 2.22167 -0.733487 -0.20892 2.90615e-015 -1.98059e-014 -1.00914e-014 -87.1463 52.1177 15.4908 27.9777 -30.1214 -69.7863 0.803406 24.3253 -3.64777 -9.97195e-010 2.14472e-009 5.57261e-010 -1.71303e-009 3.75451e-009 9.81452e-010 -9.97196e-010 2.14472e-009 5.57265e-010 -7.73091 5.47488 -0.417314 -9.97188e-010 2.14472e-009 5.57259e-010 -2.90554 0.965183 -0.102902 -9.97207e-010 2.14472e-009 5.57266e-010 -10.2786 0.731801 -0.0259123 -9.97193e-010 2.14472e-009 5.57264e-010 -2.22167 -0.733487 0.20892 -2.03217e-016 0 -3.88251e-019 7.23467 -34.622 2.17416 -0.533804 44.8007 -0.15992 -0.207326 4.22796 -13.4724 2.03217e-016 0 3.88251e-019 4.12217 -19.0945 3.92395 3.96832 76.9081 -3.58827 -4.82355 27.2695 16.0977 
